<?xml version="1.0" encoding="utf-8"?>
<!-- Generator: Adobe Illustrator 16.0.0, SVG Export Plug-In . SVG Version: 6.00 Build 0)  -->
<!DOCTYPE svg PUBLIC "-//W3C//DTD SVG 1.1//EN" "http://www.w3.org/Graphics/SVG/1.1/DTD/svg11.dtd">
<svg version="1.1" id="Layer_1" xmlns="http://www.w3.org/2000/svg" xmlns:xlink="http://www.w3.org/1999/xlink" x="0px" y="0px"
	 width="999.999px" height="461.749px" viewBox="0 0 999.999 461.749" enable-background="new 0 0 999.999 461.749"
	 xml:space="preserve">
<g>
	<path fill="#6E6B6A" d="M225.016,374.384c-50.945,0-92.392-41.373-92.392-92.229c0-50.854,41.446-92.227,92.392-92.227
		s92.392,41.373,92.392,92.227C317.407,333.011,275.961,374.384,225.016,374.384z M225.016,193.765
		c-48.83,0-88.556,39.652-88.556,88.391c0,48.74,39.726,88.393,88.556,88.393c48.829,0,88.556-39.652,88.556-88.393
		C313.571,233.417,273.845,193.765,225.016,193.765z"/>
	<path fill="#6E6B6A" d="M225.016,421.298c-76.86,0-139.392-62.418-139.392-139.143c0-76.722,62.531-139.14,139.392-139.14
		s139.392,62.418,139.392,139.14C364.407,358.88,301.876,421.298,225.016,421.298z M225.016,146.851
		c-74.746,0-135.556,60.698-135.556,135.304c0,74.609,60.81,135.307,135.556,135.307c74.745,0,135.556-60.697,135.556-135.307
		C360.571,207.549,299.761,146.851,225.016,146.851z"/>
	<path fill="#6E6B6A" d="M225.016,461.749c-99.205,0-179.914-80.564-179.914-179.594c0-99.026,80.709-179.589,179.914-179.589
		S404.93,183.129,404.93,282.155C404.93,381.185,324.221,461.749,225.016,461.749z M225.016,106.402
		c-97.09,0-176.078,78.843-176.078,175.753c0,96.914,78.988,175.758,176.078,175.758s176.078-78.844,176.078-175.758
		C401.094,185.245,322.105,106.402,225.016,106.402z"/>
	<polygon fill="#FFE900" points="584.099,341.464 614.607,341.464 565.536,263.778 613.819,219.262 583.852,219.262 533.699,266.03 
		533.699,172 511.621,172 511.621,341.464 533.699,341.464 533.699,293.13 549.557,278.511 	"/>
	<path fill="#FFE900" d="M78.722,216.42L78.722,216.42c-15.952,0-30.451,6.195-41.249,16.297v-68.983H55.86l-26.538-40.271
		L0,163.734h18.314v113.093v60.016v4.619h19.328v-62.117c0-22.688,18.393-41.08,41.079-41.08c22.688,0,41.079,18.393,41.079,41.08
		v62.117h19.328v-64.635C139.129,235.063,112.084,216.42,78.722,216.42"/>
	<path fill="#FFE900" d="M462.024,220.759v74.564c0,14.648-11.875,26.523-26.523,26.523c-14.646,0-26.52-11.875-26.52-26.523
		v-74.564h-0.789h-20.487h-0.785v74.564c0,14.648-11.876,26.523-26.523,26.523c-14.648,0-26.522-11.875-26.522-26.523v-74.564
		h-21.272v73.951c0,26.395,21.398,47.795,47.795,47.795c15.239,0,28.802-7.141,37.554-18.248
		c8.752,11.107,22.314,18.248,37.551,18.248c26.398,0,47.796-21.4,47.796-47.795v-73.951H462.024z"/>
	<path fill="#8F8AC1" d="M241.058,279.905c0,8.861-7.184,16.041-16.042,16.041c-8.859,0-16.043-7.18-16.043-16.041
		c0-8.859,7.184-16.043,16.043-16.043C233.874,263.862,241.058,271.046,241.058,279.905"/>
	<path fill="#FFE900" d="M286.448,281.019c0-33.93-27.505-61.434-61.433-61.434c-33.929,0-61.433,27.504-61.433,61.434
		c0,33.928,27.504,61.434,61.433,61.434c16.239,0,30.998-6.313,41.982-16.604v15.613h19.157v-53.586h-0.096
		C286.309,285.622,286.448,283.337,286.448,281.019 M225.016,322.878c-22.474,0-40.693-18.742-40.693-41.859
		s18.22-41.857,40.693-41.857s40.692,18.74,40.692,41.857S247.489,322.878,225.016,322.878"/>
	<path fill="#FFE900" d="M738.703,284.788h6.549c0.076-1.248,0.127-2.504,0.127-3.771c0-33.926-27.504-61.432-61.434-61.432
		c-33.929,0-61.434,27.506-61.434,61.432c0,33.932,27.505,61.436,61.434,61.436c26.132,0,48.437-16.322,57.314-39.32h-22.767
		c-7.186,11.852-19.968,19.744-34.548,19.744c-21.239,0-38.668-16.736-40.521-38.088h81.041H738.703z M683.945,239.161
		c17.232,0,31.951,11.023,37.886,26.582h-75.771C651.994,250.185,666.713,239.161,683.945,239.161"/>
	<path fill="#FFE900" d="M993.325,284.788h6.549c0.074-1.248,0.125-2.504,0.125-3.771c0-33.926-27.506-61.432-61.434-61.432
		c-33.927,0-61.434,27.506-61.434,61.432c0,33.932,27.507,61.436,61.434,61.436c26.132,0,48.437-16.322,57.316-39.32h-22.767
		c-7.186,11.852-19.97,19.744-34.55,19.744c-21.236,0-38.666-16.736-40.521-38.088h81.041H993.325z M938.565,239.161
		c17.232,0,31.951,11.023,37.888,26.582h-75.772C906.614,250.185,921.335,239.161,938.565,239.161"/>
	<path fill="#FFE900" d="M843.422,220.004l-32.67,91.96l-32.63-91.96h-24.523l47.109,120.476
		c-1.017,4.119-6.492,24.309-17.143,29.191c-11.877,5.443-18.311-1.732-18.311-1.732v22.27c0,0,18.806,3.713,28.457-1.236
		c9.65-4.947,17.815-18.559,22.764-32.91l51.469-136.058H843.422z"/>
	<rect x="498.95" y="0.015" width="178.709" height="3.138"/>
	<rect x="498.95" y="81.217" width="178.709" height="3.135"/>
	<path d="M523.753,53.152v8.996c0,7.677-3.795,11.466-11.467,11.466h-1.942c-7.584,0-11.287-3.789-11.287-11.289v-8.6h6.88v8.867
		c0,3.176,1.498,4.674,4.67,4.674h1.416c3.177,0,4.675-1.499,4.675-4.674v-9.262c0-3.088-1.059-4.412-3.089-5.912l-8.645-6.263
		c-4.588-3.263-5.907-6.437-5.907-11.466V22.28c0-7.676,3.793-11.47,11.465-11.47h1.765c7.588,0,11.291,3.794,11.291,11.293v5.294
		h-6.88v-5.561c0-3.175-1.498-4.674-4.675-4.674h-1.234c-3.177,0-4.676,1.5-4.676,4.674v7.764c0,3.086,1.146,4.409,3.175,5.91
		l8.557,6.175C522.343,44.949,523.753,47.858,523.753,53.152"/>
	<polyline points="534.591,73.096 534.591,17.875 525.332,17.875 525.332,11.348 550.911,11.348 550.911,17.875 541.65,17.875 
		541.65,73.096 	"/>
	<path d="M578.753,62.146c0,7.676-3.795,11.466-11.467,11.466h-2.207c-7.672,0-11.467-3.791-11.467-11.466V11.337h7.056v51.162
		c0,3.174,1.503,4.676,4.678,4.676h1.674c3.177,0,4.678-1.502,4.678-4.676V11.337h7.056"/>
	<path d="M590.287,66.642h4.233c4.766,0,6.968-2.378,6.968-7.144V24.921c0-4.765-2.202-7.143-6.968-7.143h-4.233V66.642z
		 M583.231,11.337h11.643c9.263,0,13.674,4.412,13.674,13.672v34.402c0,9.263-4.411,13.675-13.674,13.675h-11.643"/>
	<rect x="612.802" y="11.349" width="7.056" height="61.748"/>
	<path d="M637.969,17.26h-2.118c-3.176,0-4.676,1.5-4.676,4.676V62.51c0,3.179,1.5,4.676,4.676,4.676h2.118
		c3.175,0,4.675-1.498,4.675-4.676V21.936C642.644,18.759,641.144,17.26,637.969,17.26 M638.232,73.623h-2.646
		c-7.674,0-11.467-3.791-11.467-11.466v-39.87c0-7.677,3.793-11.468,11.467-11.468h2.646c7.675,0,11.468,3.791,11.468,11.468v39.87
		C649.7,69.833,645.907,73.623,638.232,73.623"/>
	<path d="M677.493,53.152v8.996c0,7.677-3.797,11.466-11.47,11.466h-1.942c-7.586,0-11.289-3.789-11.289-11.289v-8.6h6.88v8.867
		c0,3.176,1.499,4.674,4.674,4.674h1.412c3.175,0,4.675-1.499,4.675-4.674v-9.262c0-3.088-1.058-4.412-3.088-5.912l-8.645-6.263
		c-4.586-3.263-5.908-6.437-5.908-11.466V22.28c0-7.676,3.793-11.47,11.466-11.47h1.766c7.586,0,11.293,3.794,11.293,11.293v5.294
		h-6.884v-5.561c0-3.175-1.5-4.674-4.675-4.674h-1.234c-3.177,0-4.675,1.5-4.675,4.674v7.764c0,3.086,1.146,4.409,3.175,5.91
		l8.558,6.175C676.082,44.949,677.493,47.858,677.493,53.152"/>
	<rect x="301.051" fill="#E31319" width="187.327" height="84.381"/>
	<path fill="#FFFFFF" d="M482.274,61.952h-9.481V11.314h-11.06v61.738h20.541V61.952z M362.08,53.742h6.243l-3.18-26.402
		L362.08,53.742z M391.937,22.312c-0.025,0-0.045,0.004-0.056,0.004v19.857c0.873-0.005,1.765-0.21,2.62-0.62
		c2.603-1.268,4.817-4.423,4.817-9.42C399.318,22.572,392.807,22.305,391.937,22.312 M459.807,22.583h-9.997v13.946h9.997v11.272
		h-9.997v14.162h9.997v11.105H438.75V17.104l-8.873,55.965l-12.988,0.037c0,0-6.626-39.635-6.637-39.715
		c1.07,6.406-2.952,13.094-6.514,15.734l7.027,23.944h-0.028l0.005,0.013h-10.921l-5.356-20.433l-2.584,0.377v20.042h-0.031v0.013
		h-0.013l-21.112-0.013l-1.299-9.499h-8.655l-1.303,9.499h-21.503V43.306l-5,29.762h-5.93l-5.077-29.762v29.762h-11.153V11.323
		h14.165l4.972,31.903l5.104-31.903h14.156v56.784l8.515-56.79l14.793,0.006l8.236,54.815l0.043-54.815c0,0,11.239-0.006,11.307,0
		c10.181,0,14.802,7.471,16.105,10.039l-1.264-10.039h11.296l5.094,37.605l5.151-37.605h31.328"/>
</g>
</svg>
